<?xml version="1.0" standalone="no"?>
<!DOCTYPE svg PUBLIC "-//W3C//DTD SVG 20010904//EN"
 "http://www.w3.org/TR/2001/REC-SVG-20010904/DTD/svg10.dtd">
<svg version="1.0" xmlns="http://www.w3.org/2000/svg"
 width="633.000000pt" height="633.000000pt" viewBox="0 0 633.000000 633.000000"
 preserveAspectRatio="xMidYMid meet">
<metadata>
Created by potrace 1.11, written by Peter Selinger 2001-2013
</metadata>
<g transform="translate(0.000000,633.000000) scale(0.100000,-0.100000)"
fill="#000000" stroke="none">
<path d="M995 4303 l0 -806 -492 -166 c-271 -91 -489 -168 -485 -172 4 -4 79
-34 167 -67 88 -33 264 -99 390 -147 127 -49 257 -98 290 -110 33 -12 76 -29
95 -37 l35 -14 0 -775 0 -774 733 -3 732 -2 0 207 c0 115 0 447 0 740 l0 531
128 -3 c70 -2 152 -4 182 -4 51 -2 59 -5 110 -50 49 -44 113 -99 305 -266 33
-29 166 -144 295 -256 219 -189 436 -377 505 -438 17 -14 77 -67 135 -116 58
-50 121 -104 140 -121 19 -18 85 -75 145 -128 l110 -96 903 0 c496 0 902 2
902 4 0 2 -91 78 -202 167 -239 193 -237 191 -252 204 -6 6 -34 28 -61 50 -28
22 -59 47 -70 57 -11 9 -74 60 -140 112 -66 53 -127 102 -135 109 -8 7 -107
87 -220 177 -113 91 -207 167 -210 170 -3 3 -27 24 -55 45 -27 22 -55 45 -62
50 -6 6 -38 31 -70 57 -32 26 -114 92 -183 148 -160 129 -147 118 -205 165
-27 22 -79 64 -115 93 -36 30 -72 59 -80 65 -109 87 -329 265 -342 277 -17 15
-17 17 0 31 19 16 252 211 322 269 25 21 108 91 185 155 77 64 149 124 160
133 11 10 61 51 110 92 50 41 92 77 95 80 3 3 57 48 120 100 63 52 117 97 120
100 3 3 86 73 185 155 99 82 182 152 185 155 3 3 59 50 125 105 66 55 129 107
140 117 11 9 119 99 240 200 121 101 233 195 250 210 l30 28 -941 0 -940 0
-55 -51 c-187 -177 -348 -330 -389 -369 -74 -71 -341 -324 -380 -360 -37 -34
-300 -284 -380 -360 -26 -25 -100 -94 -164 -155 l-118 -110 -179 0 -179 0 0
650 c0 357 0 674 0 703 l0 52 -732 0 -733 0 0 -807z"/>
</g>
</svg>
